<svg id="visual" viewBox="0 0 500 520" width="600" height="600" xmlns="http://www.w3.org/2000/svg" xmlns:xlink="http://www.w3.org/1999/xlink" version="1.1"><g transform="translate(260 315)"><path d="M87.9 -135.9C118.7 -78.8 151.9 -55.7 175.6 -16.8C199.4 22.1 213.6 76.8 197.2 122.2C180.9 167.5 134.1 203.6 90.8 196.3C47.5 189.1 7.7 138.6 -44.9 120.7C-97.6 102.7 -163.1 117.4 -200.6 95.1C-238.1 72.9 -247.6 13.8 -241.3 -46.1C-235 -106.1 -213 -166.8 -170.1 -221.7C-127.3 -276.7 -63.6 -325.8 -17.6 -304.9C28.5 -284 57 -192.9 87.9 -135.9" fill="#940065"></path></g></svg>