<svg id="visual" viewBox="0 0 530 400" width="600" height="500" xmlns="http://www.w3.org/2000/svg" xmlns:xlink="http://www.w3.org/1999/xlink" version="1.1"><g transform="translate(240 205)"><path d="M170.8 -169.4C232.4 -151.9 300.8 -108.5 287.1 -68.2C273.3 -27.8 177.2 9.5 127 51.6C76.8 93.6 72.4 140.3 44.8 171.2C17.2 202 -33.6 217.1 -81.2 206.8C-128.8 196.6 -173.1 161 -198.7 115.3C-224.4 69.7 -231.3 13.8 -232.4 -51.5C-233.4 -116.9 -228.6 -191.7 -188.8 -213.1C-149.1 -234.4 -74.6 -202.2 -10 -190.3C54.6 -178.4 109.3 -186.9 170.8 -169.4" fill="#009473"></path></g></svg>