<svg id="visual" viewBox="0 0 900 600" width="900" height="600" xmlns="http://www.w3.org/2000/svg" xmlns:xlink="http://www.w3.org/1999/xlink" version="1.1"><rect x="0" y="0" width="900" height="600" fill="#FFFFFF"></rect><g transform="translate(402.62018709314685 265.9945934706982)"><path d="M128.6 -154.3C170.6 -146.5 211.3 -114.2 215.8 -75.9C220.3 -37.6 188.6 6.7 176 60.8C163.4 114.9 169.9 178.8 143.7 206.1C117.6 233.5 58.8 224.2 6.3 215.6C-46.2 207 -92.5 199 -110.7 169C-128.9 139.1 -119.2 87.3 -116.2 49C-113.2 10.6 -117 -14.3 -109.8 -35.4C-102.6 -56.5 -84.3 -73.8 -64.2 -88.7C-44.1 -103.7 -22 -116.3 10.6 -131C43.3 -145.6 86.6 -162.2 128.6 -154.3" fill="#BB004B"></path></g></svg>