<svg id="visual" viewBox="0 0 900 600" width="900" height="600" xmlns="http://www.w3.org/2000/svg" xmlns:xlink="http://www.w3.org/1999/xlink" version="1.1"><g transform="translate(66.07198139350251 606.4271288736511)"><path d="M123.2 -166.3C190.2 -90.7 296 -80.7 315.6 -44.6C335.1 -8.4 268.5 54.1 229.7 143.4C191 232.7 180.1 348.9 119.6 403.3C59.2 457.6 -51 450.1 -136.6 405.8C-222.3 361.4 -283.5 280.2 -341.2 191.5C-398.8 102.9 -453 6.7 -451.2 -92.7C-449.3 -192.1 -391.5 -294.9 -306.9 -367.5C-222.4 -440.1 -111.2 -482.5 -41.5 -433C28.1 -383.5 56.2 -242 123.2 -166.3" fill="#BB004B"></path></g></svg>